<?xml version="1.0" standalone="no"?>
<!DOCTYPE svg PUBLIC "-//W3C//DTD SVG 20010904//EN"
 "http://www.w3.org/TR/2001/REC-SVG-20010904/DTD/svg10.dtd">
<svg version="1.0" xmlns="http://www.w3.org/2000/svg"
 width="581.000000pt" height="429.000000pt" viewBox="0 0 581.000000 429.000000"
 preserveAspectRatio="xMidYMid meet">

<g transform="translate(0.000000,429.000000) scale(0.100000,-0.100000)"
fill="#FFFFFF" stroke="none">
<path d="M2815 3844 c-311 -36 -535 -142 -740 -348 -399 -402 -457 -1010 -141
-1485 140 -211 361 -379 604 -461 426 -142 884 -35 1208 285 90 88 222 272
206 286 -12 10 -618 358 -633 363 -9 3 -28 -17 -53 -56 -112 -173 -349 -237
-543 -146 -70 33 -158 120 -193 192 -85 173 -55 362 79 497 130 129 318 162
487 85 61 -28 161 -118 190 -171 10 -19 22 -35 26 -35 8 0 629 357 640 368 4
4 -22 50 -57 102 -157 236 -418 422 -685 489 -141 35 -283 47 -395 35z m303
-90 c95 -17 132 -29 132 -44 0 -7 -95 -10 -280 -10 l-280 0 0 24 c0 33 7 37
108 46 104 9 207 4 320 -16z m-508 -350 l0 -325 -65 -66 -65 -66 0 372 c0 204
1 371 3 371 1 0 27 9 57 20 30 10 58 19 63 20 4 0 7 -147 7 -326z m825 238
l50 -27 3 -290 2 -290 -58 -32 c-33 -18 -62 -30 -65 -26 -4 3 -7 161 -7 350 0
268 3 343 13 343 6 0 35 -13 62 -28z m-1027 -975 c2 -1095 11 -995 -82 -934
l-50 33 -1 898 c0 493 2 901 5 905 10 16 104 71 115 68 7 -3 11 -315 13 -970z
m877 898 l0 -60 -297 -3 -298 -2 0 65 0 65 298 -2 297 -3 0 -60z m358 -66 l57
-51 0 -144 0 -144 -55 -35 c-30 -19 -59 -35 -65 -35 -7 0 -10 76 -10 230 0
127 3 230 8 230 4 0 33 -23 65 -51z m-1445 -141 l-3 -63 -92 -3 c-54 -2 -93 1
-93 7 0 5 20 34 46 65 44 54 47 56 95 56 l50 0 -3 -62z m1087 -3 l0 -60 -297
-3 -298 -2 0 65 0 65 298 -2 297 -3 0 -60z m532 -48 c36 -52 36 -61 4 -80 -16
-9 -32 -17 -35 -17 -3 0 -6 29 -6 65 0 36 3 65 8 65 4 0 17 -15 29 -33z
m-1622 -157 l0 -65 -140 -3 c-76 -1 -145 0 -152 2 -10 4 -5 22 19 71 l33 66
120 -3 120 -3 0 -65z m1093 -27 c3 -105 -1 -110 -54 -63 -116 101 -322 141
-472 91 -34 -12 -64 -21 -67 -21 -3 0 -5 20 -5 45 l0 45 298 -2 297 -3 3 -92z
m-1090 -180 l3 -63 -186 0 -187 0 7 33 c4 17 11 47 17 65 l10 32 166 -2 167
-3 3 -62z m-10 -142 c10 -1 12 -18 10 -63 l-3 -63 -190 0 -190 0 -3 58 c-3 50
0 58 17 65 15 5 246 7 359 3z m7 -271 l0 -65 -174 -3 c-109 -1 -178 1 -186 8
-14 12 -29 105 -20 121 4 6 78 8 193 7 l187 -3 0 -65z m0 -205 l0 -60 -153 -3
-153 -3 -19 43 c-11 24 -20 53 -20 66 l0 22 173 -2 172 -3 0 -60z m355 -7 l60
-62 0 -323 c0 -200 -4 -323 -10 -323 -5 0 -34 9 -65 21 l-55 20 0 365 c0 200
2 364 5 364 2 0 31 -28 65 -62z m928 -11 c9 -7 12 -78 12 -296 l0 -286 -59
-32 c-32 -18 -61 -29 -65 -26 -8 8 -8 688 0 696 6 6 79 -31 112 -56z m-190
-19 c-2 -17 -11 -24 -30 -26 -34 -4 -35 4 -5 29 29 25 39 24 35 -3z m353 -74
l59 -35 0 -144 0 -143 -57 -51 c-31 -28 -61 -51 -65 -51 -4 0 -8 104 -8 230 0
127 3 230 6 230 4 0 33 -16 65 -36z m-1443 -96 l-3 -63 -100 -3 -100 -3 -33
54 c-17 29 -32 58 -32 65 0 9 37 12 135 12 l136 0 -3 -62z m712 50 c47 0 152
3 233 7 l148 7 -3 -63 -3 -64 -297 -3 -298 -2 0 66 0 67 68 -8 c37 -5 105 -8
152 -7z m935 -78 c5 -9 -50 -100 -60 -100 -3 0 -5 32 -5 70 l0 71 29 -16 c17
-8 33 -19 36 -25z m-1647 -182 c2 -46 -1 -68 -9 -68 -16 0 -129 121 -123 132
3 5 33 8 67 6 l62 -3 3 -67z m1077 66 c11 -5 15 -21 15 -65 l0 -59 -280 -1
c-154 -1 -288 -2 -297 -3 -15 -1 -19 9 -21 53 -2 29 -1 60 2 67 4 11 61 13
285 13 154 1 287 -2 296 -5z m13 -271 l3 -63 -301 0 -300 0 0 65 0 65 298 -2
297 -3 3 -62z"/>
<path d="M770 999 c-46 -18 -90 -71 -106 -127 -39 -132 42 -259 171 -270 64
-5 114 10 155 48 38 35 38 46 0 65 -28 14 -30 14 -45 -8 -44 -68 -150 -59
-195 16 -24 39 -27 125 -5 167 34 65 131 81 189 30 29 -26 38 -29 60 -20 14 5
26 14 26 18 0 19 -45 65 -76 78 -38 16 -137 17 -174 3z"/>
<path d="M1210 805 l0 -205 35 0 35 0 0 205 0 205 -35 0 -35 0 0 -205z"/>
<path d="M1480 805 l0 -205 35 0 34 0 3 120 c2 70 7 121 13 121 6 1 49 -52 97
-117 75 -103 91 -119 115 -119 l28 0 3 203 2 202 -40 0 -40 0 0 -121 c0 -67
-4 -119 -9 -117 -5 2 -48 56 -96 121 -76 103 -90 117 -116 117 l-29 0 0 -205z"/>
<path d="M2010 805 l0 -205 130 0 130 0 0 35 0 35 -95 0 -95 0 0 50 0 50 91 0
90 0 -3 33 -3 32 -88 3 -88 3 3 52 3 52 93 3 92 3 0 29 0 30 -130 0 -130 0 0
-205z"/>
<path d="M2450 805 l0 -205 35 0 35 0 0 129 c0 72 4 132 8 135 5 3 35 -30 67
-74 32 -44 61 -77 65 -75 4 2 31 36 60 75 30 38 57 70 62 70 4 0 9 -57 10
-127 l3 -128 35 0 35 0 3 203 2 202 -39 0 c-37 0 -41 -3 -100 -85 -34 -46 -65
-86 -70 -89 -4 -3 -37 35 -72 84 -61 84 -66 89 -101 89 l-38 1 0 -205z"/>
<path d="M3111 818 c-35 -106 -66 -199 -68 -205 -4 -9 7 -13 35 -13 39 0 41 2
54 43 l15 42 80 3 81 3 14 -43 c13 -39 18 -43 51 -46 26 -2 37 1 37 10 0 7
-28 99 -63 203 l-64 190 -54 3 -54 3 -64 -193z m150 22 c13 -38 20 -72 17 -76
-11 -10 -82 -11 -95 -2 -11 9 -3 39 32 136 10 27 25 9 46 -58z"/>
<path d="M3590 805 l0 -205 35 0 35 0 0 120 c0 89 3 120 13 120 6 0 52 -54
100 -120 71 -97 93 -120 112 -120 l25 0 0 205 0 205 -35 0 -35 0 0 -120 c0
-66 -4 -120 -9 -120 -5 0 -49 54 -98 120 -75 103 -92 120 -115 120 l-28 0 0
-205z"/>
<path d="M4117 1003 c-10 -9 -8 -376 2 -391 5 -8 21 -12 37 -10 l29 3 3 203 2
202 -33 0 c-19 0 -37 -3 -40 -7z"/>
<path d="M4450 862 c0 -162 -9 -192 -56 -192 -21 0 -24 -5 -24 -35 0 -42 14
-44 78 -15 63 29 72 58 72 240 l0 150 -35 0 -35 0 0 -148z"/>
<path d="M4751 818 c-35 -106 -66 -199 -69 -206 -3 -10 5 -13 33 -10 38 3 43
8 64 61 11 28 11 28 93 25 l81 -3 11 -40 c11 -37 15 -40 49 -43 26 -2 37 1 37
10 0 7 -28 99 -63 203 l-64 190 -54 3 -54 3 -64 -193z m150 22 c13 -38 21 -71
18 -73 -10 -9 -85 -16 -97 -9 -11 8 -4 38 33 140 10 27 25 9 46 -58z"/>
</g>
</svg>
